<svg fill-rule="evenodd" image-rendering="optimizeQuality" shape-rendering="geometricPrecision" text-rendering="geometricPrecision" viewBox="0 0 5 5" xmlns="http://www.w3.org/2000/svg">
 <defs>
  <clipPath id="a">
   <path d="m1.0017 0.63198h2.9967v3.736h-2.9967z"/>
  </clipPath>
 
</defs>
<g id="bell" width="100px" height="100px" clip-path="url(.assets/images/lib-bell.svg#a)" stroke="rgb(169, 105, 38)" stroke-linecap="round" stroke-linejoin="round" stroke-width=".04155">
  <path d="m3.92128,1.63264-.07789.00371-.00926-.00105-.0044-.00081-.00058-.00011h-.00012v-.00012-.00046-.00186-.01851l-.00011-.20891-.00174-.49826-.00035-.01678-.00196-.0162-.00382-.01516-.00266-.00718-.00348-.00694-.00405-.00671-.00116-.00162-.00069-.00081-.00301-.00266-.00313-.00231-.00335-.00208-.00706-.00313-.00741-.00231-.01574-.00313-.00799-.00127-.00393-.00081-.00197-.00046h-.00023-.00012l-.01991-.07141h-.06979l-.02987.03669-.01539.01794-.00798.00845-.00209.00208-.00023.00035-.00012.00012l-.0125-.0007-.11054-.00185-.05544-.00035h-.00544-.00069-.00012-.00023l-.00868-.08102l-.05197.00463-.02512.00417-.01238.00278-.00301.0007-.00035.00011h-.00011-.00012l-.0066.0956l-.00335.00579l-.34157.00579l.00127-.01482 .00324-.01389 .00996-.02627 .00995-.02639 .00324-.01401 .00046-.00359 .00012-.00046v-.00023-.00012l-.00127-.00208-.00163-.00197-.00196-.00208-.00463-.00382-.00556-.00347-.01308-.00637-.01435-.00509-.02604-.00602-.00845-.00081-.00139.00012-.00093.00011-.00046.00012-.00336.00139-.00312.00162-.00301.00185-.00556.00463-.00486.00544-.00451.00613-.0081.01377-.01575.0294-.00949.01308-.00544.00567-.00613.00474-.00046.00023l-.08982-.06817" fill="none"/>
  <path d="m2.76035.73521l.00069-.00857-.00058-.00752-.00069-.00324-.00093-.00313-.00115-.00289-.00151-.00255-.00162-.00243-.00186-.00231-.00208-.00196-.00463-.00359-.00255-.0015-.00138-.00081-.00243-.00092-.00324-.00081-.00869-.00104-.02407.00046-.1117.01481-.0118.00209-.00081.00023h-.00012l-.00035.00509-.00023.0213-.00034.00231-.00058.0022-.00081.00209-.00104.00174-.0007.00081v.00012h-.00011v.00012h-.11795v-.00012l-.00023-.01956-.00105-.01019-.00185-.00972-.00277-.00879-.00186-.00382-.0022-.00347-.00243-.00289-.00139-.00116-.00138-.00116-.00162-.00092-.00162-.0007-.0022-.00058-.00625-.00093-.01829-.00104-.1036.00544-.0206.00278-.00416.00081-.00093.00023h-.00046l-.00012.00011-.00035.05972h-.00011l-.00475-.00231-.00451-.00185-.00452-.00127-.00451-.00081-.0044-.00035h-.00428l-.00857.00128-.00833.00243-.00822.00347-.01609.00903-.03183.01852-.0081.00324-.00822.00208-.00416.00058-.00047.00011h-.00023-.00012l-.02951-.04791-.00914-.01042-.0051-.00452-.00567-.00405-.00602-.00336-.00671-.00255-.00938-.00231-.00729-.00093-.00729.00023-.00718.00116-.00694.0022-.00648.00313-.00614.00405-.00289.00243-.00035.00035-.00011.00011-.00012.00011-.00173.01725 .00069.03565 .00741.07002 .00023.00417 .00011.00046v.00035l-.34735-.01574" fill="none"/>
  <path d="m1.70335.83335-.00174-.0037-.00162-.00428-.00243-.01007-.0088-.04595-.00161-.00474-.00197-.00428-.00232-.00359-.00255-.00278-.00289-.0022-.00312-.00174-.00348-.00127-.00358-.00081-.00787-.00081-.01725.00023-.00903-.00011-.00452-.00023-.00046-.00011h-.00034h-.00012l-.00544.00509-.00451.00555-.00371.00591-.00289.00636-.00232.00672-.003.01412-.0029.02974-.00151.01482-.00104.00718-.00069.00359-.00012.00046v.00011h-.00011l-.10533-.0066-.05232-.00486-.02581-.00324-.00637-.00081-.0008-.00012-.00035-.00011-.00012-.00011-.01516-.05035-.00579-.01169-.00717-.01088-.0088-.00984-.00255-.00231-.00023-.00023-.00012-.00012h-.00011l-.02489-.00359-.02569.00023-.02454.00417-.01134.0037-.00267.00104-.00034.00012-.00024.00011l-.0125.09965v.00012l-.02083.01065-.01042.00671-.00961.00764-.00856.00879-.00359.00474-.00312.00509-.00255.00532-.00197.00567-.00069.00289-.00012.00047v.00011l-.00336.10092-.01226.39919-.00602.21943l-.00081-.00011-.0081-.00104-.03357-.00278-.04294.00058-.01991.00312-.00868.00243-.00741.00336-.00046.00023-.00023.00012v.00011l-.00544.02269-.00533.04803-.00081.09826 .00498.14097 .00555.03461 .00903.03321 .01366.03148 .00891.01493 .00116.00174 .00104.00139 .00579.00532 .00637.0044 .00682.00359 .0073.00278 .00775.00208 .01597.0022 .01644-.00011" fill="none"/>
  <path d="m1.16015,2.08206 .01632-.00209 .01551-.00347 .00729-.00208 .00347-.00116 .00024-.00012h.00011v-.00011l.00405-.00614 .0044-.00486 .00243-.00197 .00498-.00312 .00533-.00231 .00566-.00151 .00591-.00093 .01215-.00069 .02535-.00104 .00625-.00116 .00602-.00174 .00035-.00011 .00011-.00012h.00012l.01991.05232h.00011l.01193.00081 .01157-.00047 .011-.0015 .02095-.00567 .01967-.00834 .00243-.00115 .00035-.00024h.00012l.00046-.00127 .00046-.00115 .00023-.00116 .00024-.00116v-.00231l-.00035-.0022-.00058-.0022-.00185-.00429-.00382-.00844-.00058-.00209-.00035-.00208v-.00104l.00012-.00093 .00011-.00104v-.00012l.00012-.00011h.00011l.02801-.00162 .05452.00312 .10846.01239 .00694.00023h.00093 .00023 .00023l.00162.00243 .0015.00266 .00209.00556 .00301.01169 .00185.00578 .00243.00545 .00162.00254 .00197.00243 .00104.00116 .00023.00011v.00012l.09399-.0125l.04815-.24675l.16702-.10394v-.00012l.00012-.0008 .00011-.00394 .0022-.03877 .00474-.05498 .00336-.025 .00417-.01898 .00116-.00336 .00057-.00138 .00012-.00035 .00012-.00012v-.00011l.20522-.01748 .00011.00012 .00799.00636 .00694.00706 .00602.00776 .00509.00833 .0044.0088 .00672.01898 .00463.02014 .0059.04166 .00474.07292v.01794l-.00185.01724" fill="none"/>
  <path d="m2.17698,1.80428-.00185.00833-.00254.00787-.00348.00741-.0044.00706-.00058.00081-.00034.00046-.00023.00012-.09191.04803-.19283.07454-.04769.02037-.01574.00775-.03785.02327-.00856.00694-.00753.0081-.00324.00451-.00289.00487-.00023.00058-.00024.00034v.00012l-.01724.12604-.01366.26041-.02963.3655-.02674.20428-.02164.09873-.02952.09548-.02349.05834-.02176.04617-.00984.02037-.00162.00324-.0007.00128-.00023.00046v.00012l-.00023.00023-.03877.06273-.04654.05636-.10706.10231-.11124.10151-.05162.05567-.01215.0147-.0015.00196-.0007.00093-.00012.00023-.05532.09039-.01216.02327-.00995.02407-.00683.02546-.0015.01274 .00034.0118 .00186.01134 .00312.011 .00428.01053 .00544.01007 .01355.01887 .01632.01689 .01817.01493 .01898.01274 .03658.01955 .06516.02593 .06818.01863 .14248.02269 .24191.02604 .48822.03738v.00012l.00046.04236-.00104.04409 .00104.02153 .00325.02072 .00266.00996 .00358.00948 .00209.00463 .00035.00058v.00012l.00011.00011 .01493.00452 .01586.00266 .01644.00104 .01666-.00069 .0323-.00544 .01504-.00463 .00359-.00127 .00035-.00024h.00023l.00012-.00011-.00047-.07755 .00162-.03808 .00209-.01851 .00069-.00452 .00012-.00058 .00011-.00023v-.00011l.08137-.01737 .00012-.00011 .00729-.00521 .00625-.00602 .00533-.00671 .00428-.00741 .00324-.00775 .00208-.00822 .00127-.00845" fill="none"/>
  <path d="m2.47109,4.09984 .00012-.00208v-.00023-.00023l-.00012-.00024-.00856-.02129-.00636-.02269-.00788-.0478-.01261-.09698-.00556-.0228-.00764-.02165-.0103-.02014-.01331-.0184-.0081-.00845-.00903-.00787-.01007-.00718-.01123-.00659-.01227-.00602-.00173-.0007-.00035-.00011-.00035-.00023-.00382-.00822-.00312-.00868-.00394-.0184-.00289-.03924-.00139-.03912-.00208-.01817-.00093-.0044-.00127-.00382-.06447-.15994-.03693-.07778-.01991-.0382-.00254-.00474-.00139-.00232-.00058-.00127-.00023-.00023v-.00023l-.00359-.02095-.00104-.0213 .00347-.04294 .00695-.04282 .00439-.04039 .00729-.4912h.00012l.00035-.00011 .0015-.00035 .0022-.00035h.00128l.00139.00012 .00127.00023 .00127.00035 .00058.00023 .00058.00034 .00058.00047 .00058.00046 .00046.00046 .00035.0007 .00046.00069 .00023.0007 .00023.00093 .00012.00046v.00011l.00012.00012 .01018.11261-.00451.23159-.00139.17095-.00012.07141 .00405.03461 .00845.03345 .01551.03634 .04016.08402 .03404.08681 .01099.04548 .00486.04722-.00035.02443-.00092.0125-.00069.00624v.00081l-.00012.00035v.00023l.08716.11678 .00243.00394 .01944.03958 .02871.0831 .04456.17153 .00162.00521 .00081.00266 .00046.00127v.00035l.00012.00023 .5844-.01551 .05082-.00347 .18357-.02072 .17929-.03426 .17188-.05231 .04144-.01644 .02049-.00879 .00509-.0022 .00255-.00116" fill="none"/>
  <path d="m3.77637,3.9782 .00069-.00035 .00047-.00023 .00984-.0066 .0221-.01215 .01053-.00671 .00475-.00382 .00428-.00417 .00359-.00463 .00301-.00521 .00208-.00578 .00116-.00648 .00012-.00348-.00047-.00671-.00486-.0287-.0081-.02743-.01065-.02639-.02743-.05023-.03229-.04838-.00104-.00139-.00058-.00081-.00012-.00023-.13901-.14293-.12396-.15104-.05279-.07963-.04491-.08299-.03541-.08657-.03276-.12361-.02674-.14155-.03368-.29004-.04433-.53437-.00498-.0287-.00752-.02789-.00579-.01308-.00764-.01227-.00463-.0059-.00822-.00787-.04305-.03136-.04538-.02535-.09618-.03762-.10001-.02835-.05023-.01389-.00625-.00174-.00301-.00092-.00081-.00024-.00012-.00011-.0155-.07824-.00441-.03912-.00034-.0191 .00023-.00474v-.00058-.00012-.00011l.01262-.02963 .02974-.05764 .01273-.02917 .00498-.01481 .00347-.01516 .00186-.0154v-.01585l-.00232-.0162-.00486-.01679-.00336-.00868-.00046-.00104-.00023-.00058l.20487.06204 .08172.0272 .01898.00752 .00104.00058 .0007.00046 .00023.00023 .00335.00394 .00278.00417 .00116.00231 .00081.00231 .00069.00244 .00012.00034v.00012 .00011l.00012.00012 .0177.09757 .05765.18645 .01446.04664 .00336.01181 .00046.00139 .00024.00081l.04398.00173l.00185.00463 .00128.00452 .00069.00428 .00023.00405-.00023.00394-.00069.00382-.00116.00358-.00151.00348-.00196.00335-.00244.00324-.00601.00602" fill="none"/>
  <path d="m3.31466,2.00254-.00741.00578-.00208.00139-.00035.00012-.00012.00011 .01412.09722 .10139-.00752 .00579-.0265 .21355.00995 .00116.00035 .00093.00046 .00081.00058 .0007.00058 .00058.00058 .00058.00069 .00046.00081 .00035.00081 .00023.00081 .00046.00185 .00011.00197-.00011.00417-.0007.00868 .00012.00208 .00011.00197 .00012.00011v.00012l.07396-.00671 .00243-.0316h.00012l.01979-.00347 .03912-.00798 .00961-.00023h.00243l.00023.00011h.00023v.00023l.00046.00822 .00116.00718 .00174.00625 .0022.00532 .00278.00463 .00324.0037 .0037.00312 .00417.00243 .00452.00174 .00474.00127 .00521.00069h.011l.01193-.00127 .04977-.01111 .02257-.00313h.00498l.00463.00046 .00058.00011h.00012l.00011-.00011 .01609-.12408 .00162-.12778-.00961-.10463-.01979-.10046m-.10521.07072 .00162.00972 .00324.04132 .00475.08657 .0015.08715-.00174.03565-.00394.02928-.00301.01146-.0037.00903-.00208.00347-.00243.00289-.00116.00104-.00139.00104-.00139.0007-.00139.00058 .00671-.10509 .00012-.02628-.00012-.00625v-.0015-.00035-.00012l-.02083-.00312-.02153-.00128-.02141.00139-.01042.00197-.01007.00301-.00128.00046h-.00011l-.03947.00046-.03785-.00521" fill="none"/>
  <path d="m3.6487,1.88136-.03635-.00995-.06944-.02963-.06679-.03565-.06042-.02917-.0544-.01551-.05452-.01343-.0265-.00845-.0257-.01088-.02442-.01447-.00591-.00428-.00035-.00023-.00023-.00012-.00428-.0059-.00382-.00694-.00289-.00776-.0022-.00822-.00116-.00833-.00012-.00822 .00116-.00775 .00104-.0037 .00139-.00336 .00046-.00093 .01169-.01748-.00174.01655 .00023.0169 .00104.00845 .00185.00799 .00266.00775 .0037.00706 .00046.00093 .00035.00035 .00104.00104 .00127.00104 .00382.00243 .01169.00579 .21575.08206 .12512.0515 .04954.02489 .00266.0015 .00058.00035 .00035.00023h.00012 .16367l.00174-.12257 .00035-.0331 .00104-.00914 .00058-.00278 .00035-.00081 .00011-.00035 .00011-.00011 .00012-.00012h.00011v-.00011h.00012 .00011 .00011 .00012l.00011.00011h.00012l.00011.00012 .00011.00023 .00023.00035 .00046.00104 .00081.00278m-.12246.2883-.32328-.02824 .03044.0963 .00741-.00532-.00787-.07106 .22767.02824v.00011l.00023.00116 .00046.00231 .00104.00949 .00116.01909 .00162.00915 .00127.0044 .00012-.00023 .00104-.00463 .00544-.01887 .00405-.0103 .00231-.0044 .00255-.00359 .00127-.0015 .00139-.00104 .00058-.00046 .00069-.00035" fill="none"/>
  <path d="m3.65321,2.01192 .0007-.00023 .00069-.00023 .00231-.00011 .00891.00011 .0162.00012 .02326.02419-.01169-.0441m.01169.0441m-.07153.02153m-.00579-.04572m-.2198.04282m-.00741.00532m-.00046-.07639m-.02998-.01991m-.45454-.00752-.15441-.01285-.15521-.00116-.31437.01053-.21934-.00185-.00359-.00058-.00255-.00081-.00093-.00035-.00035-.00023-.00023-.00023-.00023-.00023-.00012-.00012h-.00011l-.00011-.00011v-.00011-.00012-.00011l-.00012-.00012 .00012-.00011v-.00011-.00012l.00011-.00011v-.00012l.00023-.00023 .00023-.00023 .00035-.00023 .00093-.00035 .00104-.00046 .00301-.00069 .00405-.00058 .00243-.00023 .00128-.00011h.00035 .00011l.2448-.0132 .25615-.00625 .21424.0059 .07883.00995 .02662.00718 .00972.00405 .00382.0022 .00324.00231m-.14781-.10278 .00012-.00011v-.00012l.00011-.00011v-.00011-.00012-.00035l-.00011-.00023-.00012-.00035-.00023-.00058-.00035-.00058-.00093-.00104-.00069-.00081-.00012-.00012-.00011-.00011-.075-.02454-.00996-.14965 .05151-.03982 .00289-.00255 .00544-.00579 .00474-.00602 .00405-.00659 .00347-.00683 .00498-.01458 .00278-.01539 .00116-.01609-.00046-.01632-.00428-.03194-.00648-.02917 .17374-.4861-.0066-.00498-.17871.48274v.00012" fill="none"/>
  <path d="m2.73881,1.47489v.00011 .00024l.00012.00046 .00058.00393 .00104.00787 .00197.01598 .0037.06527-.00162.02986v.00012l-.00011.00012-.00012.00011-.00023.00047-.00173.00289-.00463.00567-.00568.00509-.00648.00451-.00741.00394-.0081.00312-.00856.00244-.00903.0015-.00926.00069-.00938-.00023-.00937-.00127-.00926-.00232-.00892-.00335-.00856-.00463-.00799-.00591-.00729-.00717h-.00012v-.00012l-.00011-.00011-.00011-.00035-.00024-.00069-.0022-.00533-.0037-.01087-.00428-.02234-.00128-.02303 .00139-.02338 .01725-.09074l-.03646-.05394-.00799-.00891-.01342-.01215-.01413-.00961-.01492-.00718-.01517-.00497-.01539-.00301-.01528-.00093-.01505.0007-.01458.00243-.01389.00393-.01285.00533-.01181.00648-.01041.00752-.00892.00845-.00706.00914-.00278.00487-.00219.00497-.00012.00046-.00023.00058-.00012.00058v.00058 .00023l.00012.00012v.00023l.00012.00023 .00011.00012 .00012.00023 .00011.00012 .00012.00011 .00011.00011 .00024.00012 .00046.00012 .00046.00011h.00046 .00058l.00128-.00023 .003-.00092 .00336-.00163 .00359-.00219 .00347-.00278 .00764-.00637 .01192-.0081 .0125-.00625 .01308-.00463 .01355-.00289 .01365-.00116 .01389.00069 .01389.00232 .01378.00428 .01354.00602 .0132.00775 .01261.00961 .01204.01157 .01123.01332 .01041.01516 .00938.01713v.00011" fill="none"/>
  <path d="m2.61034,1.43542v.00012l-.00012.00035-.00011.00046-.00035.00115-.00509.01713-.00787.03426-.00452.03507-.00058.03715 .00174.01806 .0088.03044 .00648.01458 .00798.01354 .00973.01216 .00555.00532 .00591.00486 .00648.00428 .00706.00359 .00752.00301l.01331.15289h-.00011-.00012-.00023-.00047l-.00416-.00012-.00834-.00023-.01631-.0008-.03241-.00232-.06331-.00822l.00127-.32904-.00787.00416-.01331.3191h-.00012h-.00023-.00035l-.00254-.00024-.00498-.00011-.00926-.00012h-.01679l-.0162-.00116-.01771-.00381v-.00012-.00012-.00034l-.00012-.00058v-.00127l-.00034-.00521-.00058-.011-.00174-.04838-.00729-.20138-.00417-.03229-.00277-.01077-.00163-.0037-.00081-.00151-.00092-.00115-.00047-.00047-.00046-.00034-.00046-.00035-.00046-.00023-.00047-.00024h-.00058v.14537l-.00011.00012h-.00012l-.00104.00035-.0022.00035-.00219.00011-.00221-.00023-.0022-.00058-.00231-.00069-.00475-.00197-.00937-.00509-.00926-.00487v-.00011-.00023-.00035l-.00012-.00289-.00023-.02384-.00092-.01158-.00417-.01944-.00602-.01505-.00822-.01423-.01007-.0132-.01169-.01215-.01285-.01088-.01365-.00938-.01424-.00787l-.12257-.53436-.0073.00556" fill="none"/>
  <path d="m2.18763.94434 .11239.55289h.00012l.00011.00011h.00023l.00058.00012 .00105.00023 .00428.00116 .00845.003 .01632.00799 .01504.01088 .0132.01343 .00162.00231 .00452.00718 .00358.00729 .0029.00729 .00208.00718 .00127.00717 .0007.00706v.00695l-.0007.00683-.00115.00659-.00186.00637-.00231.00613-.0029.00579-.00694.01065-.00868.00926-.00475.00393-.00509.00347-.00544.00301-.00556.00243-.00578.00185-.00602.00139-.00602.0007h-.00625l-.00625-.0007-.00625-.00127-.00625-.0022-.00625-.00277-.00614-.00371-.00613-.00452-.00591-.00543-.00115-.00162-.00116-.00151-.00208-.00324-.00382-.0066-.0059-.01388-.00394-.01482-.00197-.01481-.00035-.00186-.00057-.0015-.0007-.00139-.00081-.00116-.00034-.00046-.00047-.00034-.00046-.00036-.00046-.00022-.00058-.00024-.00047-.00011h-.00046-.00046l-.00047.00011-.00046.00024-.00046.00022-.00035.00047-.00046.00046-.00035.00046-.00035.0007-.00046.00151-.00035.00196-.00023.00232 .00046.01007 .00163.02303 .00219.01018 .00174.00498 .0022.00475 .00289.00474 .00348.00463 .00428.00451 .00521.00452 .01308.00914 .01493.00752 .00775.00266 .00776.00197 .00798.00116 .00787.00058 .00799-.00035 .00799-.00092 .00787-.00186 .00764-.00254 .00764-.00336 .0074-.00416 .00707-.00498 .00682-.00591 .00648-.00659 .00614-.00752 .00023-.00035 .00081-.00093 .00093-.00069" fill="none"/>
  <path d="m2.39181,1.63299 .00093-.00058 .00104-.00047 .00104-.00034 .00116-.00012 .00115-.00011 .00243.00035 .00266.00069 .00545.00231 .02199.01378v.00011 .00012 .00034 .0007 .00532l.00012.01054-.00024.02094-.00127.04121-.00278.08437l-.00173.00023-.00336.00035-.00683.00104-.01377.00232-.02767.00439-.00093.00012-.0008-.00012-.00081-.00023-.0007-.00034-.00069-.00035-.00081-.00058-.00139-.00127-.00139-.00151-.00128-.00185-.00405-.00776-.00231-.00578-.00023-.00058v-.00012l.02037-.05752-.00637-.0052-.03912.06319l-.00012-.00012l-.00011-.00011-.00023-.00024-.00151-.00185-.00289-.0037-.00533-.00764-.00949-.01562-.0147-.03287-.00011-.00035-.00058-.00116-.00058-.00092-.00069-.00081-.00082-.0007-.00069-.00046-.00046-.00023-.00035-.00012-.00035-.00011-.00046-.00012h-.00035-.00034l-.00035.00012-.00035.00011-.00035.00012-.00034.00011-.00024.00024-.00034.00034-.00023.00023-.00023.00047-.00023.00034-.00012.00047-.00023.00092-.00012.00116 .00047.00961 .00185.01111 .00289.01088 .00417.01064 .00532.01031 .00637.00983 .00764.00915 .00868.00833v.00012h-.00012-.00023-.00046l-.00081.00011-.00197.00023-.00463.00047-.02465.00208-.0522.00416-.01285.00174-.00359.00104-.00128.00058-.00034.00023-.00035.00023-.00011.00024-.00012.00011" fill="none"/>
  <path d="m2.22201,1.82928-.00011.00012v.00011l-.00012.00012v.00011 .00011h.00012v.00012 .00011l.00011.00012 .00012.00011 .00011.00011 .00035.00023 .00046.00023 .00127.00035 .00359.00058 .00532.00023 .25927.00405 .26981.01794h.00011 .00023l.00093.00012h.00162l.00116-.00012 .00058-.00011 .00035-.00023 .00035-.00011 .00011-.00012 .00012-.00011 .00011-.00011v-.00012m-.00243-.00474m-.075-.02454m-.00996-.14965m-.1404-.18692m.00787-.00417m.08102-.05567m-.19365.05405m0,.14537m-.0647.11053m.00637.00521m-.02037.05752m-.03102.01782m-.2036-.29328-.02465-.00139-.05185-.01065-.02628-.00532-.02593-.00255-.01262.00023-.01238.00185-.01204.00335-.01169.00532-.01123.00752-.01076.00995-.05394.04989-.00058.00451 .00011.01192 .00405.03241 .01354.07037 .00023.00428-.00012.00313-.00011.00116-.00012.00046-.00023.00035-.00012.00035-.00011.00011-.00012.00012-.00011.00011h-.00011l-.00012.00011h-.00011-.00023-.00011l-.00012-.00011h-.00011l-.00035-.00023-.00023-.00023-.00035-.00035-.00081-.00104-.00162-.00278-.00405-.00972-.03345-.08414-.0088-.01539-.00417-.00602-.00428-.00498" fill="none"/>
  <path d="m1.82604,1.58727-.00208-.00197-.00047-.00034-.00023-.00024-.00011-.00011-.00012-.00012l-.06505.0066-.12535.02511-.00197.00047-.00104.00011-.00023.00012l-.00845.00532-.01516.01239-.02686.02824-.01377.01365-.01517.01193-.00856.00486-.00289.00139-.10198.0434-.10509.03542-.05533.00948-.05822.00128-.00371-.00023-.00092-.00012h-.00012-.00011l-.00903.02709-.01146.05717-.00729.09919-.00058.00254-.00047.00116-.00034.00081-.00046.0007-.00023.00034-.00024.00024-.00023.00022-.00035.00012-.00023.00023h-.00023l-.00023.00012h-.00035l-.00023-.00012-.00023-.00011-.00035-.00012-.00023-.00012-.00023-.00022-.00058-.00058-.00046-.00081-.00058-.00082-.00093-.00242-.00081-.00302-.00069-.00381-.00023-.00197-.00706-.12824 .00023-.06551v-.00104-.00046-.00035-.00012h.00011l.04341.00857 .0419.00231 .04039-.00347 .03901-.00845 .03785-.01273 .07281-.0353 .13831-.09074 .03391-.02268 .00417-.00278 .00209-.00139 .00057-.00035h.00012l.22767-.02997l.06517-.04526 .03519-.01875 .01817-.00682 .0184-.00463 .01863-.00186 .00938.00024 .00949.00104 .00961.00196 .00961.0029 .0096.00405 .00961.00498 .00243.00139 .00127.00069 .00024.00023h.00011l.01007-.00475 .01875-.01203 .01725-.01435" fill="none"/>
  <path d="m2.11425,1.47605 .03322-.03148 .01748-.01482 .00926-.00683 .00116-.00081 .0007-.00035 .00011-.00011-.05406.10301m-.49782.31909-.00081-.00104-.00104-.00104-.00127-.00093-.0015-.00093-.00347-.00162-.00926-.00266-.01192-.00185-.03044-.00196-.07651.0015-.122.00671-.03669.00463-.01759.0044-.01678.00637-.01586.00891-.00741.00556-.00717.00636v.00012l-.00174.00231-.00648.00984-.00266.00509-.00197.00544-.00058.00266-.00035.00278v.00289l.00035.00289 .0007.00289 .00104.00301m.00012,0v-.00012l.00393-.00463 .00787-.01019 .00822-.00972 .0044-.00382 .00231-.00162 .00231-.00139 .00243-.00093 .00509.1353 .00579-.00822 .00741-.12882 .00335-.00579h.00011l.00347-.00035 .02628-.00891 .00613-.00162 .00313-.00035h.00301l.00301.00035 .00301.00093-.00035.10683 .00093.01447 .00139.01042 .00046.00174 .00011.00058 .00012.00023 .00011.00012 .00011.00011 .00012.00012h.00011 .00012l.00011-.00012 .00011-.00011 .00012-.00012 .00023-.00058 .00046-.00208 .0044-.0537 .00729-.05567 .00544-.0213 .00324-.00833 .00359-.00671 .11494-.00857 .06505.00116 .06274.00162m0-.00012v-.00011l-.00023-.00069" fill="none"/>
  <path d="m1.62499,1.84537-.00011-.00058-.00035-.00046-.00023-.00058m.00093.00243v.00012m-.27097.01991m-.04815.00995m-.00335.00579m-.01829.00174m-.01991-.00752m-.01157.03993m.04236.09467m-.00579.00822m.89808-1.07463m.00729-.00556m.0353-.0934 .00196-.00798 .56392-.01076-.00521-.01296-.00648-.01088-.00752-.00891-.00857-.00717-.00937-.00567-.01019-.0044-.01076-.00336-.0228-.00428-.0478-.00452-.01123-.0015-.0015-.00035-.00069-.00035-.00046-.00023-.00011-.00012-.00023-.00011-.00012-.00023-.00011-.00011v-.00023l-.00011-.00011v-.00012-.00023-.00023-.00012-.00023l.00023-.00035 .00012-.00035 .00035-.00046 .00058-.00069 .00162-.0015 .00243-.00162h.09225l.09978.08391-.61994.00625m.42791-.09016m.25939.2368m.0066.00498m.37733-.04768-.00104-.02072 .00093-.02187 .00359-.02164 .00289-.01019 .00394-.00961 .00474-.00868 .00579-.00776 .00335-.00335 .00359-.00313 .00393-.00278 .00556-.00301 .36761.00011 .00104.00452-.37687.01215-.01285.11365-.0037.0191-.00046.00231-.00035.00116-.00011.00069v.00011" fill="none"/>
  <path d="m3.31304.99041h-.00023-.00023-.00011l-.00023-.00011-.00023-.00011-.00011-.00012-.00023-.00011-.00046-.00046-.00035-.00046-.00093-.00139-.00081-.00185-.00185-.00474-.00324-.01377-.00255-.01794m-1.60228-.10023-.01273.00845-.01366.00694-.01447.00498-.00729.0015-.00752.00069-.00741-.00023-.00752-.00104-.00382-.00093-.00093-.00035h-.00023v-.00012l-.00174-.00579 .0044.00081 .0044.00035 .00914-.00035 .00949-.00174 .04989-.01319m-.29921,0-.0162.00648-.01829.00417-.01898.00162-.01898-.00127-.00903-.00185-.00857-.00266-.00417-.00174-.00104-.00046-.00023-.00012 .00012-.00046v-.00035l.00011-.00046-.00011-.00035v-.00023l-.00012-.00035-.00011-.00023-.00011-.00023-.00012-.00023-.00046-.00046-.0007-.00058-.00011-.00023h-.00011l.04687-.0022 .05035.0022m-.10139,2.81951 .01215.01042 .02882.01944 .03472.01759 .0838.03009 .09838.02361 .219.03056 .21124.0125 .04641.00093 .02176.00023h.01054 .00069 .00023 .00011l-.00035.00058-.00046.00058-.00058.00046-.00139.00104-.00162.00093-.0044.00174-.00556.00139-.01459.0022-.04074.00162-.11424-.00486-.22837-.02338-.20233-.03484-.07222-.02176-.02801-.01262-.02245-.01377-.00903-.00752-.00752-.00787-.00602-.00833-.0044-.00868-.00289-.00915" fill="none"/>
  <path d="m1.29928,3.67172-.00046-.00243-.00011-.00058-.00012-.00012m-.13959.18773 .03808.02512 .04526.02257 .10915.03785 .12906.02905 .14318.0213 .15151.01458 .17397.01007 .00197.00069 .00081.00035 .00069.00046 .00058.00046 .00046.00046 .00046.00046 .00011.00023 .00011.00023 .00012.00023v.00035 .00023 .00023 .00035l-.00012.00023-.00011.00023-.00011.00023-.00012.00035-.00046.00046-.00058.00046-.0007.00046-.00081.00046-.0022.00081-.00324.00081-.06667.00556-.18346-.00903-.20997-.03137-.09966-.02234-.08808-.02593-.07049-.0287-.02049-.00996-.01887-.01238-.00857-.00729-.00787-.00833-.00694-.00937-.00313-.00521-.0015-.00266-.00069-.00139-.00035-.00069-.00011-.00035-.00011-.00012v-.00011h-.00012v-.00012m1.1643.30335-.06563-.00255 .00313-.00243 .00347-.00209 .0037-.00174 .00764-.00243 .01192-.00289 .01459.00313 .00683.0022 .00637.00301 .00602.00417 .0015.00116 .00035.00035 .00012.00012m.39447-.32627 .02292-.00046 .38937-.01667 .23798-.02234 .09595-.01597 .00093-.00023 .00081-.00011 .00162-.00046 .00532-.00139 .00359-.00116 .00116-.00058 .00046-.00023 .00023-.00023 .00011-.00011 .00012-.00012v-.00011-.00011-.00012-.00011h-.00012l-.00011-.00012" fill="none"/>
  <path d="m3.47809,3.77276h-.00012l-.00035-.00011-.00104-.00011-.00151-.00012-.01042.00116-.14792.01713-.18172.01354-.23635.01262-.15649.00625-.02338.00081-.00104.00949m.15579.2103 .04236-.00324 .24874-.0243 .22211-.03252 .18392-.03889 .12617-.04016 .01215-.00393 .00185-.00035h.0007 .00058 .00046l.00023.00011h.00012l.00011.00011 .00011.00012 .00012.00011v.00012 .00011 .00011 .00023l-.00012.00011-.00011.00023-.00035.00046-.00046.00046-.00127.00104-.00417.00289-.00833.00463-.07269.03044-.08623.02604-.20175.0397-.22269.02593-.26228.01632-.01019-.00035-.00255-.00035h-.00035l-.00035-.00011v-.00012h-.00012v-.00011m0-.00012v-.00011h.00012v-.00011h.00011l.00035-.00012 .00093-.00035 .00312-.00069 .02963-.00336m.72862-.30289 .00046.00081 .00046.0007 .00046.00069 .00058.00046 .00069.00058 .0007.00035 .00081.00035 .00093.00035 .00185.00035 .00197.00012 .00231-.00012 .00231-.00035 .00509-.00139 .01123-.00463 .01111-.00648 .00972-.00741 .00394-.00382 .00301-.0037 .00116-.00174 .00093-.00174 .00046-.00162 .00023-.0007v-.00081-.00069l-.00012-.00069-.00011-.00058-.00035-.0007-.05984.03241" fill="none"/>
  <path d="m3.6022 3.7408" fill="none"/>
 </g>
</svg>
